<svg width="24" height="24" viewBox="0 0 24 24" fill="none" xmlns="http://www.w3.org/2000/svg">
<path d="M16.5956 9.08663C16.5956 10.7166 15.2737 12.0385 13.6438 12.0385C12.0138 12.0385 10.6919 10.7166 10.6919 9.08663C10.6919 7.45669 12.0138 6.13477 13.6438 6.13477C15.2737 6.13477 16.5956 7.45669 16.5956 9.08663Z" fill="#EF3D24"/>
<path fill-rule="evenodd" clip-rule="evenodd" d="M12.001 0C5.37852 0 0.000976562 5.37754 0.000976562 12C0.000976562 18.6225 5.37852 24 12.001 24C18.6234 24 24.001 18.6225 24.001 12C24.001 5.37754 18.6234 0 12.001 0ZM12.001 4.2738C16.2619 4.2738 19.7272 7.73904 19.7272 12C19.7272 16.261 16.2619 19.7262 12.001 19.7262C7.74001 19.7262 4.27477 16.261 4.27477 12C4.27477 7.73904 7.74001 4.2738 12.001 4.2738Z" fill="#EF3D24"/>
</svg>
