<svg width="10" height="14" viewBox="0 0 10 14" fill="none" xmlns="http://www.w3.org/2000/svg">
<path d="M5.00098 0.5C4.44869 0.5 4.00098 0.947715 4.00098 1.5C4.00098 1.54201 4.00357 1.58342 4.0086 1.62406C2.2795 2.06545 1.00098 3.63342 1.00098 5.5V8.5C0.448692 8.5 0.000976562 8.94772 0.000976562 9.5C0.000976562 10.0523 0.448692 10.5 1.00098 10.5H9.00098C9.55326 10.5 10.001 10.0523 10.001 9.5C10.001 8.94772 9.55326 8.5 9.00098 8.5V5.5C9.00098 3.63342 7.72245 2.06545 5.99336 1.62406C5.99839 1.58342 6.00098 1.54201 6.00098 1.5C6.00098 0.947715 5.55326 0.5 5.00098 0.5Z" fill="white"/>
<path d="M7.00098 11.5C7.00098 12.6046 6.10555 13.5 5.00098 13.5C3.89641 13.5 3.00098 12.6046 3.00098 11.5H7.00098Z" fill="white"/>
</svg>
