<?xml version="1.0" standalone="no"?>
<svg class="grid_svg__RI0bx w-full h-full pb-[0.2rem] overflow-visible" xmlns="http://www.w3.org/2000/svg" viewBox="0 0 1593 797" style="color: rgb(245, 136, 122); background: rgb(163, 68, 97);"><g><g transform="translate(-0, -0)"><g transform="translate(0, 0)"><rect class="cursor-pointer" width="200" height="200" fill="transparent"></rect></g></g><g transform="translate(-1, -0)"><g transform="translate(200, 0)"><rect class="cursor-pointer" width="200" height="200" fill="transparent"></rect></g></g><g transform="translate(-2, -0)"><g transform="translate(400, 0)"><rect class="cursor-pointer" width="200" height="200" fill="transparent"></rect></g></g><g transform="translate(-3, -0)"><g transform="translate(600, 0)"><rect class="cursor-pointer" width="200" height="200" fill="transparent"></rect></g></g><g transform="translate(-4, -0)"><g transform="translate(800, 0)"><rect class="cursor-pointer" width="200" height="200" fill="transparent"></rect></g></g><g transform="translate(-5, -0)"><g transform="translate(1000, 0)"><rect class="cursor-pointer" width="200" height="200" fill="transparent"></rect></g></g><g transform="translate(-6, -0)"><g transform="translate(1200, 0)"><rect class="cursor-pointer" width="200" height="200" fill="transparent"></rect></g></g><g transform="translate(-7, -0)"><g transform="translate(1400, 0)"><rect class="cursor-pointer" width="200" height="200" fill="transparent"></rect></g></g><g transform="translate(-0, -1)"><g transform="translate(0, 200)"><rect class="cursor-pointer" width="200" height="200" fill="transparent"></rect></g></g><g transform="translate(-1, -1)"><g transform="translate(200, 200)"><rect class="cursor-pointer" width="200" height="200" fill="transparent"></rect></g></g><g transform="translate(-2, -1)"><g transform="translate(400, 200)"><rect class="cursor-pointer" width="200" height="200" fill="transparent"></rect></g></g><g transform="translate(-3, -1)"><g transform="translate(600, 200)"><rect class="cursor-pointer" width="200" height="200" fill="transparent"></rect></g></g><g transform="translate(-4, -1)"><g transform="translate(800, 200)"><rect class="cursor-pointer" width="200" height="200" fill="transparent"></rect></g></g><g transform="translate(-5, -1)"><g transform="translate(1000, 200)"><rect class="cursor-pointer" width="200" height="200" fill="transparent"></rect></g></g><g transform="translate(-6, -1)"><g transform="translate(1200, 200)"><rect class="cursor-pointer" width="200" height="200" fill="transparent"></rect></g></g><g transform="translate(-7, -1)"><g transform="translate(1400, 200)"><rect class="cursor-pointer" width="200" height="200" fill="transparent"></rect></g></g><g transform="translate(-0, -2)"><g transform="translate(0, 400)"><rect class="cursor-pointer" width="200" height="200" fill="transparent"></rect></g></g><g transform="translate(-1, -2)"><g transform="translate(200, 400)"><rect class="cursor-pointer" width="200" height="200" fill="transparent"></rect></g></g><g transform="translate(-2, -2)"><g transform="translate(400, 400)"><rect class="cursor-pointer" width="200" height="200" fill="transparent"></rect></g></g><g transform="translate(-3, -2)"><g transform="translate(600, 400)"><rect class="cursor-pointer" width="200" height="200" fill="transparent"></rect></g></g><g transform="translate(-4, -2)"><g transform="translate(800, 400)"><rect class="cursor-pointer" width="200" height="200" fill="transparent"></rect></g></g><g transform="translate(-5, -2)"><g transform="translate(1000, 400)"><rect class="cursor-pointer" width="200" height="200" fill="transparent"></rect></g></g><g transform="translate(-6, -2)"><g transform="translate(1200, 400)"><rect class="cursor-pointer" width="200" height="200" fill="transparent"></rect></g></g><g transform="translate(-7, -2)"><g transform="translate(1400, 400)"><rect class="cursor-pointer" width="200" height="200" fill="transparent"></rect></g></g><g transform="translate(-0, -3)"><g transform="translate(0, 600)"><rect class="cursor-pointer" width="200" height="200" fill="transparent"></rect></g></g><g transform="translate(-1, -3)"><g transform="translate(200, 600)"><rect class="cursor-pointer" width="200" height="200" fill="transparent"></rect></g></g><g transform="translate(-2, -3)"><g transform="translate(400, 600)"><rect class="cursor-pointer" width="200" height="200" fill="transparent"></rect></g></g><g transform="translate(-3, -3)"><g transform="translate(600, 600)"><rect class="cursor-pointer" width="200" height="200" fill="transparent"></rect></g></g><g transform="translate(-4, -3)"><g transform="translate(800, 600)"><rect class="cursor-pointer" width="200" height="200" fill="transparent"></rect></g></g><g transform="translate(-5, -3)"><g transform="translate(1000, 600)"><rect class="cursor-pointer" width="200" height="200" fill="transparent"></rect></g></g><g transform="translate(-6, -3)"><g transform="translate(1200, 600)"><rect class="cursor-pointer" width="200" height="200" fill="transparent"></rect></g></g><g transform="translate(-7, -3)"><g transform="translate(1400, 600)"><rect class="cursor-pointer" width="200" height="200" fill="transparent"></rect></g></g></g><g class="pointer-events-none" transform="translate(0, 0)"><g transform=""></g></g><g class="pointer-events-none" transform="translate(199, 0)"><g transform=""><g><path fill-rule="evenodd" clip-rule="evenodd" d="M100 35C64.065 35 35 64.065 35 100H0C0 44.735 44.735 0 100 0V35Z" fill="currentColor"></path><path fill-rule="evenodd" clip-rule="evenodd" d="M200 35C164.065 35 135 64.065 135 100H100C100 44.735 144.735 0 200 0V35Z" fill="currentColor"></path></g></g></g><g class="pointer-events-none" transform="translate(398, 0)"><g transform=""></g></g><g class="pointer-events-none" transform="translate(597, 0)"><g transform=""><g><path fill-rule="evenodd" clip-rule="evenodd" d="M100 165C135.935 165 165 135.935 165 100H200C200 155.265 155.265 200 100 200V165Z" fill="currentColor"></path><path fill-rule="evenodd" clip-rule="evenodd" d="M100 65C135.935 65 165 35.935 165 0H200C200 55.265 155.265 100 100 100V65Z" fill="currentColor"></path><path fill-rule="evenodd" clip-rule="evenodd" d="M0 165C35.935 165 65 135.935 65 100H100C100 155.265 55.265 200 0 200V165Z" fill="currentColor"></path><path fill-rule="evenodd" clip-rule="evenodd" d="M0 65C35.935 65 65 35.935 65 0H100C100 55.265 55.265 100 0 100V65Z" fill="currentColor"></path></g></g></g><g class="pointer-events-none" transform="translate(796, 0)"><g transform=""></g></g><g class="pointer-events-none" transform="translate(995, 0)"><g transform=""></g></g><g class="pointer-events-none" transform="translate(1194, 0)"><g transform=""><g><path fill-rule="evenodd" clip-rule="evenodd" d="M176.179 100C176.179 86.9818 186.826 76.3808 200 76.3808V41.5C167.341 41.5 141 67.7729 141 100C141 132.255 167.47 158.5 200 158.5V123.619C186.898 123.619 176.179 112.991 176.179 100Z" fill="currentColor"></path><path fill-rule="evenodd" clip-rule="evenodd" d="M76.3807 200C76.3807 186.765 86.9648 176.119 100 176.119C112.963 176.119 123.619 186.793 123.619 200H158.5C158.5 167.452 132.282 141 100 141C67.5906 141 41.5 167.48 41.5 200H76.3807Z" fill="currentColor"></path></g></g></g><g class="pointer-events-none" transform="translate(1393, 0)"><g transform=""></g></g><g class="pointer-events-none" transform="translate(0, 199)"><g transform=""></g></g><g class="pointer-events-none" transform="translate(199, 199)"><g transform=""></g></g><g class="pointer-events-none" transform="translate(398, 199)"><g transform=""></g></g><g class="pointer-events-none" transform="translate(597, 199)"><g transform=""></g></g><g class="pointer-events-none" transform="translate(796, 199)"><g transform=""></g></g><g class="pointer-events-none" transform="translate(995, 199)"><g transform=""></g></g><g class="pointer-events-none" transform="translate(1194, 199)"><g transform=""></g></g><g class="pointer-events-none" transform="translate(1393, 199)"><g transform=""><g><path fill-rule="evenodd" clip-rule="evenodd" d="M0 165C35.935 165 65 135.935 65 100H100C100 155.265 55.265 200 0 200V165Z" fill="currentColor"></path><path fill-rule="evenodd" clip-rule="evenodd" d="M100 65C135.935 65 165 35.935 165 0H200C200 55.265 155.265 100 100 100V65Z" fill="currentColor"></path></g></g></g><g class="pointer-events-none" transform="translate(0, 398)"><g transform=""><g><path fill-rule="evenodd" clip-rule="evenodd" d="M200 117.5H0V82.5H200V117.5Z" fill="currentColor"></path><path fill-rule="evenodd" clip-rule="evenodd" d="M200 200H0V165H200V200Z" fill="currentColor"></path><path fill-rule="evenodd" clip-rule="evenodd" d="M200 35H0V0H200V35Z" fill="currentColor"></path></g></g></g><g class="pointer-events-none" transform="translate(199, 398)"><g transform=""></g></g><g class="pointer-events-none" transform="translate(398, 398)"><g transform=""></g></g><g class="pointer-events-none" transform="translate(597, 398)"><g transform=""></g></g><g class="pointer-events-none" transform="translate(796, 398)"><g transform=""></g></g><g class="pointer-events-none" transform="translate(995, 398)"><g transform=""></g></g><g class="pointer-events-none" transform="translate(1194, 398)"><g transform=""></g></g><g class="pointer-events-none" transform="translate(1393, 398)"><g transform=""><g><path fill-rule="evenodd" clip-rule="evenodd" d="M100 35C64.065 35 35 64.065 35 100H0C0 44.735 44.735 0 100 0V35Z" fill="currentColor"></path><path fill-rule="evenodd" clip-rule="evenodd" d="M100 135C64.065 135 35 164.065 35 200H0C0 144.735 44.735 100 100 100V135Z" fill="currentColor"></path></g></g></g><g class="pointer-events-none" transform="translate(0, 597)"><g transform=""></g></g><g class="pointer-events-none" transform="translate(199, 597)"><g transform=""></g></g><g class="pointer-events-none" transform="translate(398, 597)"><g transform=""></g></g><g class="pointer-events-none" transform="translate(597, 597)"><g transform=""></g></g><g class="pointer-events-none" transform="translate(796, 597)"><g transform=""></g></g><g class="pointer-events-none" transform="translate(995, 597)"><g transform=""></g></g><g class="pointer-events-none" transform="translate(1194, 597)"><g transform=""></g></g><g class="pointer-events-none" transform="translate(1393, 597)"><g transform=""></g></g><g><defs><filter id="cellMenuA" x="30.322" y="2.695" width="40.429" height="40.429" filterUnits="userSpaceOnUse" color-interpolation-filters="sRGB"><feFlood flood-opacity="0" result="BackgroundImageFix"></feFlood><feColorMatrix in="SourceAlpha" values="0 0 0 0 0 0 0 0 0 0 0 0 0 0 0 0 0 0 127 0" result="hardAlpha"></feColorMatrix><feOffset dy="2.695"></feOffset><feGaussianBlur stdDeviation="3.369"></feGaussianBlur><feComposite in2="hardAlpha" operator="out"></feComposite><feColorMatrix values="0 0 0 0 0.356863 0 0 0 0 0.368627 0 0 0 0 0.368627 0 0 0 0.22 0"></feColorMatrix><feBlend in2="BackgroundImageFix" result="effect1_dropShadow"></feBlend><feBlend in="SourceGraphic" in2="effect1_dropShadow" result="shape"></feBlend></filter><filter id="cellMenuB" x="30.322" y="34.365" width="40.429" height="40.429" filterUnits="userSpaceOnUse" color-interpolation-filters="sRGB"><feFlood flood-opacity="0" result="BackgroundImageFix"></feFlood><feColorMatrix in="SourceAlpha" values="0 0 0 0 0 0 0 0 0 0 0 0 0 0 0 0 0 0 127 0" result="hardAlpha"></feColorMatrix><feOffset dy="2.695"></feOffset><feGaussianBlur stdDeviation="3.369"></feGaussianBlur><feComposite in2="hardAlpha" operator="out"></feComposite><feColorMatrix values="0 0 0 0 0.356863 0 0 0 0 0.368627 0 0 0 0 0.368627 0 0 0 0.22 0"></feColorMatrix><feBlend in2="BackgroundImageFix" result="effect1_dropShadow"></feBlend><feBlend in="SourceGraphic" in2="effect1_dropShadow" result="shape"></feBlend></filter><filter id="cellMenuC" x="1.348" y="18.867" width="40.429" height="40.429" filterUnits="userSpaceOnUse" color-interpolation-filters="sRGB"><feFlood flood-opacity="0" result="BackgroundImageFix"></feFlood><feColorMatrix in="SourceAlpha" values="0 0 0 0 0 0 0 0 0 0 0 0 0 0 0 0 0 0 127 0" result="hardAlpha"></feColorMatrix><feOffset dy="2.695"></feOffset><feGaussianBlur stdDeviation="3.369"></feGaussianBlur><feComposite in2="hardAlpha" operator="out"></feComposite><feColorMatrix values="0 0 0 0 0.356863 0 0 0 0 0.368627 0 0 0 0 0.368627 0 0 0 0.22 0"></feColorMatrix><feBlend in2="BackgroundImageFix" result="effect1_dropShadow"></feBlend><feBlend in="SourceGraphic" in2="effect1_dropShadow" result="shape"></feBlend></filter></defs></g></svg>