<svg width="16" height="14" viewBox="0 0 16 14" fill="none" xmlns="http://www.w3.org/2000/svg">
<g clip-path="url(#clip0_44_7013)">
<path d="M4.50098 0.5C3.94869 0.5 3.50098 0.947715 3.50098 1.5V9.5C3.50098 10.0523 3.94869 10.5 4.50098 10.5H14.501C15.0533 10.5 15.501 10.0523 15.501 9.5V2.5C15.501 1.94772 15.0533 1.5 14.501 1.5H8.50098C8.50098 0.947715 8.05326 0.5 7.50098 0.5H4.50098Z" fill="#EF3B24"/>
<path d="M2.50098 4.5H1.50098C0.948692 4.5 0.500977 4.94772 0.500977 5.5V12.5C0.500977 13.0523 0.948691 13.5 1.50098 13.5H11.501C12.0533 13.5 12.501 13.0523 12.501 12.5V11.5H3.50098C2.94869 11.5 2.50098 11.0523 2.50098 10.5V4.5Z" fill="#EF3B24"/>
</g>
<defs>
<clipPath id="clip0_44_7013">
<rect width="16" height="14" fill="white" transform="translate(0.000976562)"/>
</clipPath>
</defs>
</svg>
